<?xml version="1.0" encoding="UTF-8" standalone="no"?>
<!-- Created with Inkscape (http://www.inkscape.org/) -->
<svg
   xmlns:svg="http://www.w3.org/2000/svg"
   xmlns="http://www.w3.org/2000/svg"
   xmlns:xlink="http://www.w3.org/1999/xlink"
   version="1.0"
   width="449.66647"
   height="266.83203"
   id="svg2">
  <defs
     id="defs4" />
  <g
     transform="translate(-155.19666,-272.78632)"
     id="layer1">
    <g
       id="g14084">
      <path
         d="M 201.11749,390.87738 L 201.32146,420.65746"
         style="fill:none;fill-rule:evenodd;stroke:#0010ff;stroke-width:3;stroke-linecap:butt;stroke-linejoin:miter;stroke-miterlimit:4;stroke-dasharray:none;stroke-opacity:1"
         id="path3196" />
      <use
         transform="translate(33.45159,2.45e-6)"
         id="use3198"
         x="0"
         y="0"
         width="744.09448"
         height="1052.3622"
         xlink:href="#path3196" />
      <use
         transform="translate(69.350857,2.45e-6)"
         id="use3200"
         x="0"
         y="0"
         width="744.09448"
         height="1052.3622"
         xlink:href="#path3196" />
      <use
         transform="translate(105.25012,2.45e-6)"
         id="use3202"
         x="0"
         y="0"
         width="744.09448"
         height="1052.3622"
         xlink:href="#path3196" />
      <use
         transform="translate(144.41296,2.45e-6)"
         id="use3204"
         x="0"
         y="0"
         width="744.09448"
         height="1052.3622"
         xlink:href="#path3196" />
      <use
         transform="translate(183.16785,2.45e-6)"
         id="use3206"
         x="0"
         y="0"
         width="744.09448"
         height="1052.3622"
         xlink:href="#path3196" />
      <g
         transform="translate(-0.2884616,0)"
         id="g13976">
        <path
           d="M 179.42308,390.05449 L 402.69231,390.05449 L 589.03846,296.01603"
           style="fill:none;fill-opacity:1;fill-rule:evenodd;stroke:#0010ff;stroke-width:3;stroke-linecap:butt;stroke-linejoin:miter;stroke-miterlimit:4;stroke-dasharray:none;stroke-opacity:1"
           id="path2221" />
        <path
           d="M 420,381.97757 L 427.78846,394.38141"
           style="fill:none;fill-rule:evenodd;stroke:#0010ff;stroke-width:3;stroke-linecap:butt;stroke-linejoin:miter;stroke-miterlimit:4;stroke-dasharray:none;stroke-opacity:1"
           id="path8053" />
      </g>
      <g
         transform="translate(2.8846154,-7.5)"
         id="g13935">
        <g
           id="g12958">
          <path
             d="M 322.5,478.44293 L 368.07692,478.44293"
             style="fill:none;fill-rule:evenodd;stroke:#0e136b;stroke-width:3;stroke-linecap:butt;stroke-linejoin:miter;stroke-miterlimit:4;stroke-dasharray:none;stroke-opacity:1"
             id="path10041" />
          <path
             d="M 363.46152,482.79487 L 363.54816,467.45639 L 376.78835,475.20065 L 363.46152,482.79487 z "
             transform="translate(3.4615385,3.3173077)"
             style="fill:#0e136b;fill-opacity:1;fill-rule:nonzero;stroke:#0e136b;stroke-width:3;stroke-linecap:butt;stroke-linejoin:miter;stroke-miterlimit:4;stroke-dasharray:none;stroke-opacity:1"
             id="path10043" />
        </g>
        <path
           d="M 322.55099,478.44293 L 313.03176,478.44293"
           style="fill:none;fill-rule:evenodd;stroke:#ff0000;stroke-width:3;stroke-linecap:butt;stroke-linejoin:miter;stroke-miterlimit:4;stroke-dasharray:none;stroke-opacity:1"
           id="path12962" />
      </g>
      <path
         d="M 260.20394,470.94293 L 250.68471,470.94293"
         style="fill:none;fill-rule:evenodd;stroke:#ff0000;stroke-width:3;stroke-linecap:butt;stroke-linejoin:miter;stroke-miterlimit:4;stroke-dasharray:none;stroke-opacity:1"
         id="path13933" />
      <use
         transform="matrix(0.8879806,0.4598809,-0.4598809,0.8879806,385.73695,-136.48542)"
         id="use13941"
         x="0"
         y="0"
         width="744.09448"
         height="1052.3622"
         xlink:href="#g13935" />
      <use
         transform="matrix(0.8879806,0.4598809,-0.4598809,0.8879806,460.95599,-97.805185)"
         id="use13945"
         x="0"
         y="0"
         width="744.09448"
         height="1052.3622"
         xlink:href="#g13935" />
      <g
         transform="matrix(-0.8892157,0.4574882,-0.4574882,-0.8892157,1043.8417,682.15245)"
         id="g13971">
        <path
           d="M 235.05272,537.45834 L 379.46912,537.45834"
           style="fill:none;fill-rule:evenodd;stroke:#0e136b;stroke-width:3;stroke-linecap:butt;stroke-linejoin:miter;stroke-miterlimit:4;stroke-dasharray:none;stroke-opacity:1"
           id="path13959" />
        <path
           d="M 363.46152,482.79487 L 363.54816,467.45639 L 376.78835,475.20065 L 363.46152,482.79487 z "
           transform="translate(15.666868,62.33271)"
           style="fill:#0e136b;fill-opacity:1;fill-rule:nonzero;stroke:#0e136b;stroke-width:3;stroke-linecap:butt;stroke-linejoin:miter;stroke-miterlimit:4;stroke-dasharray:none;stroke-opacity:1"
           id="path13961" />
        <path
           d="M 236.46178,537.45834 L 226.94255,537.45834"
           style="fill:none;fill-rule:evenodd;stroke:#ff0000;stroke-width:3;stroke-linecap:butt;stroke-linejoin:miter;stroke-miterlimit:4;stroke-dasharray:none;stroke-opacity:1"
           id="path13963" />
      </g>
      <use
         transform="matrix(1,0,0,-1,5.0000022e-8,810.39744)"
         id="use13980"
         x="0"
         y="0"
         width="744.09448"
         height="1052.3622"
         xlink:href="#g13976" />
      <path
         d="M 477.29841,340.48031 C 476.71247,340.97835 476.14851,341.32992 475.60652,341.53499 C 475.06453,341.74007 474.48299,341.84261 473.86189,341.84261 C 472.8365,341.84261 472.04841,341.59212 471.49763,341.09115 C 470.94685,340.59017 470.67146,339.95003 470.67146,339.17074 C 470.67146,338.71371 470.77547,338.29623 470.98347,337.91829 C 471.19148,337.54037 471.46395,337.23715 471.80086,337.00863 C 472.13777,336.78011 472.51717,336.60726 472.93904,336.49007 C 473.24959,336.40804 473.71833,336.32894 474.34529,336.25277 C 475.62263,336.10043 476.56307,335.91879 477.16659,335.70784 C 477.17243,335.49105 477.17537,335.35336 477.17537,335.29476 C 477.17537,334.65023 477.02596,334.19613 476.72713,333.93245 C 476.32282,333.57504 475.72224,333.39633 474.92537,333.39632 C 474.18122,333.39633 473.63191,333.5267 473.27742,333.78743 C 472.92293,334.04818 472.66073,334.50961 472.4908,335.17171 L 470.94392,334.96077 C 471.08456,334.29867 471.31599,333.764 471.63826,333.35677 C 471.96053,332.94955 472.42634,332.63608 473.03573,332.41634 C 473.64509,332.19662 474.35114,332.08676 475.15388,332.08675 C 475.95075,332.08676 476.59821,332.18051 477.09627,332.368 C 477.59431,332.55551 477.96053,332.79135 478.19491,333.07552 C 478.42926,333.35971 478.59333,333.71859 478.68709,334.15218 C 478.73981,334.42172 478.76619,334.90805 478.7662,335.61116 L 478.7662,337.72054 C 478.76619,339.19125 478.79987,340.12142 478.86726,340.51107 C 478.93464,340.90072 479.06795,341.27425 479.26717,341.63167 L 477.61483,341.63167 C 477.45075,341.30355 477.34528,340.91976 477.29841,340.48031 L 477.29841,340.48031 z M 477.16659,336.9471 C 476.59236,337.18148 475.73103,337.3807 474.5826,337.54476 C 473.9322,337.63851 473.47224,337.74398 473.20271,337.86116 C 472.93319,337.97836 472.72518,338.14974 472.57869,338.37532 C 472.4322,338.60091 472.35897,338.8514 472.35897,339.12679 C 472.35897,339.54867 472.51863,339.90023 472.83797,340.18148 C 473.15731,340.46273 473.62459,340.60335 474.23983,340.60335 C 474.84919,340.60335 475.39119,340.47005 475.8658,340.20345 C 476.3404,339.93685 476.68903,339.5721 476.9117,339.10921 C 477.08161,338.75179 477.16657,338.22445 477.16659,337.52718 L 477.16659,336.9471 z "
         style="font-size:18px;font-style:normal;font-variant:normal;font-weight:normal;font-stretch:normal;text-align:start;line-height:125%;writing-mode:lr-tb;text-anchor:start;font-family:Arial"
         id="flowRoot13982" />
      <path
         d="M 506.3237,372.7984 L 504.85592,372.7984 L 504.85592,359.91364 L 506.43796,359.91364 L 506.43796,364.51032 C 507.10592,363.67244 507.95846,363.25349 508.99557,363.25348 C 509.56979,363.25349 510.11324,363.36921 510.62594,363.60065 C 511.13863,363.8321 511.56051,364.1573 511.89157,364.57623 C 512.22262,364.99519 512.48189,365.50056 512.6694,366.09235 C 512.85689,366.68415 512.95064,367.31696 512.95065,367.99079 C 512.95064,369.5904 512.55513,370.82672 511.76413,371.69977 C 510.9731,372.57282 510.02389,373.00934 508.91647,373.00934 C 507.8149,373.00934 506.95065,372.54938 506.3237,371.62946 L 506.3237,372.7984 z M 506.30612,368.0611 C 506.30612,369.18024 506.45846,369.98884 506.76315,370.48688 C 507.26119,371.30133 507.93502,371.70856 508.78464,371.70856 C 509.47604,371.70856 510.07369,371.40827 510.5776,370.80768 C 511.0815,370.2071 511.33346,369.31208 511.33346,368.12262 C 511.33346,366.90388 511.09176,366.00446 510.60837,365.42438 C 510.12496,364.84431 509.54049,364.55427 508.85495,364.55426 C 508.16354,364.55427 507.56588,364.85456 507.06198,365.45514 C 506.55807,366.05573 506.30612,366.92439 506.30612,368.0611 L 506.30612,368.0611 z "
         style="font-size:18px;font-style:normal;font-variant:normal;font-weight:normal;font-stretch:normal;text-align:start;line-height:125%;writing-mode:lr-tb;text-anchor:start;font-family:Arial"
         id="flowRoot13990" />
      <path
         d="M 511.41256,435.14869 L 512.96823,435.35084 C 512.7983,436.4231 512.36324,437.26246 511.66305,437.8689 C 510.96285,438.47535 510.10299,438.77857 509.08346,438.77857 C 507.80611,438.77857 506.77926,438.36109 506.0029,437.52613 C 505.22653,436.69117 504.83834,435.49439 504.83835,433.9358 C 504.83834,432.92799 505.00534,432.04615 505.33932,431.29029 C 505.6733,430.53444 506.1816,429.96754 506.86422,429.58961 C 507.54684,429.21168 508.28951,429.02272 509.09225,429.02271 C 510.10592,429.02272 510.93502,429.27907 511.57956,429.79175 C 512.22408,430.30446 512.63716,431.03248 512.81881,431.97584 L 511.28073,432.21314 C 511.13424,431.58619 510.87496,431.11452 510.5029,430.7981 C 510.13082,430.4817 509.68111,430.3235 509.15377,430.32349 C 508.3569,430.3235 507.70944,430.60914 507.21139,431.18043 C 506.71334,431.75172 506.46432,432.65553 506.46432,433.89185 C 506.46432,435.14576 506.70455,436.05689 507.18502,436.62525 C 507.66549,437.19361 508.29244,437.47779 509.06588,437.47779 C 509.68697,437.47779 510.20553,437.28736 510.62155,436.9065 C 511.03756,436.52564 511.30123,435.93971 511.41256,435.14869 L 511.41256,435.14869 z "
         style="font-size:18px;font-style:normal;font-variant:normal;font-weight:normal;font-stretch:normal;text-align:start;line-height:125%;writing-mode:lr-tb;text-anchor:start;font-family:Arial"
         id="flowRoot13998" />
      <path
         d="M 414.21702,412.02917 L 414.21702,410.85144 C 413.62521,411.77722 412.7551,412.24011 411.60667,412.24011 C 410.86252,412.24011 410.17844,412.03503 409.55442,411.62488 C 408.93039,411.21472 408.447,410.64197 408.10422,409.90661 C 407.76145,409.17127 407.59006,408.32605 407.59006,407.37097 C 407.59006,406.43933 407.74534,405.59412 408.05588,404.83532 C 408.36643,404.07654 408.83225,403.495 409.45335,403.0907 C 410.07444,402.68641 410.76877,402.48426 411.53635,402.48425 C 412.09885,402.48426 412.59982,402.60291 413.03928,402.84021 C 413.47873,403.07752 413.83615,403.3866 414.11155,403.76745 L 414.11155,399.14441 L 415.68479,399.14441 L 415.68479,412.02917 L 414.21702,412.02917 z M 409.21604,407.37097 C 409.21604,408.56629 409.46799,409.45984 409.9719,410.05163 C 410.4758,410.64343 411.07053,410.93933 411.75608,410.93933 C 412.44748,410.93933 413.03488,410.65662 413.51829,410.09118 C 414.00168,409.52576 414.24338,408.66297 414.24338,407.50281 C 414.24338,406.22547 413.99728,405.28797 413.5051,404.69031 C 413.01291,404.09266 412.40647,403.79383 411.68577,403.79382 C 410.98264,403.79383 410.39524,404.08094 409.92356,404.65515 C 409.45188,405.22937 409.21604,406.13465 409.21604,407.37097 L 409.21604,407.37097 z "
         style="font-size:18px;font-style:normal;font-variant:normal;font-weight:normal;font-stretch:normal;text-align:start;line-height:125%;writing-mode:lr-tb;text-anchor:start;font-family:Arial"
         id="flowRoot14006" />
      <path
         d="M 247.24331,460.32046 L 248.87808,460.52261 C 248.62026,461.47769 248.14272,462.2189 247.44546,462.74624 C 246.74819,463.27359 245.85756,463.53726 244.77359,463.53726 C 243.40835,463.53726 242.32583,463.11685 241.52603,462.27603 C 240.72622,461.43521 240.32632,460.25601 240.32632,458.73843 C 240.32632,457.16813 240.73062,455.94938 241.53921,455.08218 C 242.3478,454.215 243.39663,453.78141 244.68569,453.7814 C 245.93374,453.78141 246.95327,454.20621 247.74429,455.05581 C 248.5353,455.90543 248.9308,457.10074 248.93081,458.64174 C 248.9308,458.73551 248.92787,458.87613 248.92202,459.06363 L 241.96109,459.06363 C 242.01968,460.08902 242.30972,460.87418 242.8312,461.4191 C 243.35268,461.96402 244.00307,462.23648 244.78237,462.23648 C 245.36245,462.23648 245.85756,462.08414 246.26773,461.77945 C 246.67788,461.47476 247.00307,460.98843 247.24331,460.32046 L 247.24331,460.32046 z M 242.04898,457.76285 L 247.26089,457.76285 C 247.19057,456.9777 246.99135,456.38883 246.66323,455.99624 C 246.15932,455.38688 245.506,455.08219 244.70327,455.08218 C 243.97671,455.08219 243.36587,455.32535 242.87075,455.81167 C 242.37563,456.29801 242.10171,456.9484 242.04898,457.76285 L 242.04898,457.76285 z "
         style="font-size:18px;font-style:normal;font-variant:normal;font-weight:normal;font-stretch:normal;text-align:start;line-height:125%;writing-mode:lr-tb;text-anchor:start;font-family:Arial"
         id="flowRoot14014" />
      <path
         d="M 312.77005,465.21157 L 312.77005,457.10806 L 311.37259,457.10806 L 311.37259,455.87759 L 312.77005,455.87759 L 312.77005,454.88442 C 312.77005,454.25748 312.82572,453.79166 312.93705,453.48696 C 313.08939,453.07682 313.35745,452.7443 313.74124,452.4894 C 314.12503,452.23453 314.66263,452.10709 315.35404,452.10708 C 315.79935,452.10709 316.29153,452.15983 316.8306,452.26528 L 316.5933,453.64517 C 316.26517,453.58658 315.95462,453.55729 315.66165,453.55728 C 315.18118,453.55729 314.84134,453.65983 314.64212,453.86489 C 314.4429,454.06998 314.34329,454.45377 314.3433,455.01626 L 314.3433,455.87759 L 316.16263,455.87759 L 316.16263,457.10806 L 314.3433,457.10806 L 314.3433,465.21157 L 312.77005,465.21157 z "
         style="font-size:18px;font-style:normal;font-variant:normal;font-weight:normal;font-stretch:normal;text-align:start;line-height:125%;writing-mode:lr-tb;text-anchor:start;font-family:Arial"
         id="flowRoot14022" />
      <path
         d="M 477.29841,476.64705 C 476.71248,477.14509 476.14852,477.49666 475.60652,477.70173 C 475.06453,477.90681 474.48298,478.00935 473.8619,478.00935 C 472.8365,478.00935 472.04841,477.75886 471.49764,477.25789 C 470.94686,476.75691 470.67146,476.11677 470.67146,475.33748 C 470.67146,474.88045 470.77547,474.46297 470.98348,474.08503 C 471.19149,473.70711 471.46395,473.40389 471.80086,473.17537 C 472.13778,472.94685 472.51716,472.774 472.93905,472.65681 C 473.24959,472.57478 473.71834,472.49568 474.3453,472.41951 C 475.62264,472.26717 476.56306,472.08553 477.16659,471.87458 C 477.17244,471.65779 477.17537,471.5201 477.17538,471.4615 C 477.17537,470.81697 477.02596,470.36287 476.72713,470.09919 C 476.32282,469.74178 475.72224,469.56307 474.92538,469.56306 C 474.18122,469.56307 473.63192,469.69344 473.27742,469.95417 C 472.92292,470.21492 472.66072,470.67635 472.4908,471.33845 L 470.94393,471.12751 C 471.08456,470.46541 471.31599,469.93074 471.63826,469.52351 C 471.96053,469.11629 472.42635,468.80282 473.03572,468.58308 C 473.6451,468.36336 474.35114,468.2535 475.15389,468.25349 C 475.95076,468.2535 476.59821,468.34725 477.09627,468.53474 C 477.59431,468.72225 477.96053,468.95809 478.19491,469.24226 C 478.42927,469.52645 478.59334,469.88533 478.6871,470.31892 C 478.73982,470.58846 478.76619,471.07479 478.76619,471.7779 L 478.76619,473.88728 C 478.76619,475.35799 478.79987,476.28816 478.86726,476.67781 C 478.93465,477.06746 479.06794,477.44099 479.26717,477.79841 L 477.61482,477.79841 C 477.45076,477.47029 477.34528,477.0865 477.29841,476.64705 L 477.29841,476.64705 z M 477.16659,473.11384 C 476.59236,473.34822 475.73104,473.54744 474.58259,473.7115 C 473.93221,473.80525 473.47224,473.91072 473.20272,474.0279 C 472.93319,474.1451 472.72518,474.31648 472.57869,474.54206 C 472.43221,474.76765 472.35897,475.01814 472.35897,475.29353 C 472.35897,475.71541 472.51863,476.06697 472.83797,476.34822 C 473.15731,476.62947 473.62459,476.77009 474.23983,476.77009 C 474.8492,476.77009 475.39119,476.63679 475.8658,476.37019 C 476.3404,476.10359 476.68904,475.73884 476.9117,475.27595 C 477.08161,474.91853 477.16658,474.39119 477.16659,473.69392 L 477.16659,473.11384 z "
         style="font-size:18px;font-style:normal;font-variant:normal;font-weight:normal;font-stretch:normal;text-align:start;line-height:125%;writing-mode:lr-tb;text-anchor:start;font-family:Arial"
         id="path14036" />
      <path
         d="M 155.19666,388.28693 L 157.41151,388.09943 C 157.57557,389.17756 157.95643,389.98811 158.55409,390.53107 C 159.15174,391.07404 159.87244,391.34553 160.7162,391.34553 C 161.73181,391.34553 162.59119,390.96272 163.29432,390.19709 C 163.99744,389.43147 164.349,388.41584 164.34901,387.15021 C 164.349,385.9471 164.01111,384.99788 163.33534,384.30256 C 162.65955,383.60726 161.77478,383.2596 160.68104,383.25959 C 160.00135,383.2596 159.38806,383.4139 158.8412,383.72248 C 158.29432,384.03108 157.86463,384.43147 157.55213,384.92365 L 155.57166,384.66584 L 157.23573,375.84162 L 165.7787,375.84162 L 165.7787,377.85725 L 158.92323,377.85725 L 157.99745,382.47443 C 159.02869,381.75569 160.11072,381.39632 161.24354,381.39631 C 162.74353,381.39632 164.00915,381.91585 165.04041,382.9549 C 166.07165,383.99397 166.58728,385.32991 166.58729,386.96271 C 166.58728,388.51741 166.13415,389.86116 165.22791,390.99396 C 164.12634,392.38459 162.62244,393.0799 160.7162,393.0799 C 159.15369,393.0799 157.8783,392.6424 156.89002,391.7674 C 155.90174,390.8924 155.33729,389.73225 155.19666,388.28693 L 155.19666,388.28693 z M 169.1537,381.68928 L 168.61463,378.47834 L 168.61463,375.60725 L 171.01698,375.60725 L 171.01698,378.47834 L 170.45448,381.68928 L 169.1537,381.68928 z "
         style="font-size:24px;font-style:normal;font-variant:normal;font-weight:normal;font-stretch:normal;text-align:start;line-height:125%;writing-mode:lr-tb;text-anchor:start;font-family:Arial"
         id="flowRoot14038" />
      <path
         d="M 155.20252,429.73193 L 157.3119,429.45068 C 157.55408,430.64599 157.96619,431.50732 158.54823,432.03466 C 159.13025,432.56201 159.83924,432.82568 160.67518,432.82568 C 161.66736,432.82568 162.50525,432.48193 163.18885,431.79443 C 163.87243,431.10693 164.21423,430.25537 164.21424,429.23974 C 164.21423,428.271 163.89783,427.47217 163.26502,426.84326 C 162.6322,426.21436 161.82751,425.8999 160.85096,425.8999 C 160.45252,425.8999 159.95642,425.97803 159.36268,426.13427 L 159.59705,424.28271 C 159.73767,424.29834 159.85095,424.30616 159.9369,424.30615 C 160.83533,424.30616 161.64392,424.07178 162.36268,423.60302 C 163.08142,423.13428 163.44079,422.41163 163.4408,421.43505 C 163.44079,420.66163 163.17908,420.021 162.65565,419.51318 C 162.1322,419.00538 161.45642,418.75147 160.6283,418.75146 C 159.80799,418.75147 159.12439,419.00929 158.57752,419.5249 C 158.03064,420.04054 157.67908,420.81397 157.52284,421.84521 L 155.41346,421.47021 C 155.67127,420.05616 156.25721,418.96046 157.17127,418.1831 C 158.08533,417.40577 159.22205,417.0171 160.58143,417.01708 C 161.51892,417.0171 162.3822,417.21827 163.17127,417.6206 C 163.96033,418.02296 164.56384,418.57179 164.98182,419.26708 C 165.39978,419.96241 165.60876,420.70069 165.60877,421.48193 C 165.60876,422.22413 165.40954,422.89991 165.01112,423.50927 C 164.61267,424.11866 164.02283,424.60303 163.24159,424.9624 C 164.2572,425.19678 165.04626,425.68311 165.60877,426.42138 C 166.17126,427.15967 166.45251,428.0835 166.45252,429.19286 C 166.45251,430.69287 165.90564,431.96435 164.8119,433.00732 C 163.71814,434.05029 162.33533,434.57177 160.66346,434.57177 C 159.15564,434.57177 157.90369,434.12255 156.9076,433.22411 C 155.91151,432.32568 155.34315,431.16162 155.20252,429.73193 L 155.20252,429.73193 z M 169.14784,423.16943 L 168.60877,419.95849 L 168.60877,417.0874 L 171.01112,417.0874 L 171.01112,419.95849 L 170.44862,423.16943 L 169.14784,423.16943 z "
         style="font-size:24px;font-style:normal;font-variant:normal;font-weight:normal;font-stretch:normal;text-align:start;line-height:125%;writing-mode:lr-tb;text-anchor:start;font-family:Arial"
         id="flowRoot14046" />
      <use
         transform="translate(432.68645,146.53846)"
         id="use14072"
         x="0"
         y="0"
         width="744.09448"
         height="1052.3622"
         xlink:href="#flowRoot14038" />
      <use
         transform="translate(433.84614,-60.000005)"
         id="use14074"
         x="0"
         y="0"
         width="744.09448"
         height="1052.3622"
         xlink:href="#flowRoot14038" />
      <use
         transform="translate(432.68645,-144.23077)"
         id="use14076"
         x="0"
         y="0"
         width="744.09448"
         height="1052.3622"
         xlink:href="#flowRoot14046" />
      <use
         transform="translate(433.84614,63.461538)"
         id="use14078"
         x="0"
         y="0"
         width="744.09448"
         height="1052.3622"
         xlink:href="#flowRoot14046" />
      <use
         transform="translate(148.84615,104.9767)"
         id="use14080"
         x="0"
         y="0"
         width="744.09448"
         height="1052.3622"
         xlink:href="#flowRoot14038" />
      <use
         transform="translate(221.53846,63.525854)"
         id="use14082"
         x="0"
         y="0"
         width="744.09448"
         height="1052.3622"
         xlink:href="#flowRoot14046" />
    </g>
  </g>
</svg>
