<?xml version="1.0" encoding="UTF-8" standalone="yes"?>
<!DOCTYPE svg PUBLIC "-//W3C//DTD SVG 1.0//EN" "http://www.w3.org/TR/2001/REC-SVG-20010904/DTD/svg10.dtd">
<svg height="170" width="160" xmlns="http://www.w3.org/2000/svg" xmlns:svg="http://www.w3.org/2000/svg" xmlns:xlink="http://www.w3.org/1999/xlink">
	<line stroke="black" x1="1" x2="160" y1="10" y2="10" />
	<line stroke="black" stroke-opacity="1" x1="10" x2="10" y1="1" y2="170" />
	<text font-family="san serif" font-size="9" x="12" y="8">A</text>
	<line stroke="black" stroke-dasharray="3,1" stroke-width="0.5" x1="20" x2="20" y1="1" y2="170" />
	<text font-family="san serif" font-size="9" x="22" y="8">C</text>
	<line stroke="black" stroke-dasharray="3,1" stroke-width="0.5" x1="30" x2="30" y1="1" y2="170" />
	<text font-family="san serif" font-size="9" x="32" y="8">A</text>
	<line stroke="black" stroke-dasharray="3,1" stroke-width="0.5" x1="40" x2="40" y1="1" y2="170" />
	<text font-family="san serif" font-size="9" x="42" y="8">T</text>
	<line stroke="black" stroke-dasharray="3,1" stroke-width="0.5" x1="50" x2="50" y1="1" y2="170" />
	<text font-family="san serif" font-size="9" x="52" y="8">T</text>
	<line stroke="black" stroke-dasharray="3,1" stroke-width="0.5" x1="60" x2="60" y1="1" y2="170" />
	<text font-family="san serif" font-size="9" x="62" y="8">A</text>
	<line stroke="black" stroke-dasharray="3,1" stroke-width="0.5" x1="70" x2="70" y1="1" y2="170" />
	<text font-family="san serif" font-size="9" x="72" y="8">G</text>
	<line stroke="black" stroke-dasharray="3,1" stroke-width="0.5" x1="80" x2="80" y1="1" y2="170" />
	<text font-family="san serif" font-size="9" x="82" y="8">A</text>
	<line stroke="black" stroke-dasharray="3,1" stroke-width="0.5" x1="90" x2="90" y1="1" y2="170" />
	<text font-family="san serif" font-size="9" x="92" y="8">A</text>
	<line stroke="black" stroke-dasharray="3,1" stroke-width="0.5" x1="100" x2="100" y1="1" y2="170" />
	<text font-family="san serif" font-size="9" x="102" y="8">T</text>
	<line stroke="black" stroke-dasharray="3,1" stroke-width="0.5" x1="110" x2="110" y1="1" y2="170" />
	<text font-family="san serif" font-size="9" x="112" y="8">T</text>
	<line stroke="black" stroke-dasharray="3,1" stroke-width="0.5" x1="120" x2="120" y1="1" y2="170" />
	<text font-family="san serif" font-size="9" x="122" y="8">A</text>
	<line stroke="black" stroke-dasharray="3,1" stroke-width="0.5" x1="130" x2="130" y1="1" y2="170" />
	<text font-family="san serif" font-size="9" x="132" y="8">A</text>
	<line stroke="black" stroke-dasharray="3,1" stroke-width="0.5" x1="140" x2="140" y1="1" y2="170" />
	<text font-family="san serif" font-size="9" x="142" y="8">A</text>
	<line stroke="black" stroke-dasharray="3,1" stroke-width="0.5" x1="150" x2="150" y1="1" y2="170" />
	<text font-family="san serif" font-size="9" x="152" y="8">T</text>
	<text font-family="san serif" font-size="9" x="2" y="19">T</text>
	<line stroke="black" stroke-dasharray="3,1" stroke-width="0.5" x1="0" x2="160" y1="20" y2="20" />
	<text font-family="san serif" font-size="9" x="2" y="29">A</text>
	<line stroke="black" stroke-dasharray="3,1" stroke-width="0.5" x1="0" x2="160" y1="30" y2="30" />
	<text font-family="san serif" font-size="9" x="2" y="39">A</text>
	<line stroke="black" stroke-dasharray="3,1" stroke-width="0.5" x1="0" x2="160" y1="40" y2="40" />
	<text font-family="san serif" font-size="9" x="2" y="49">T</text>
	<line stroke="black" stroke-dasharray="3,1" stroke-width="0.5" x1="0" x2="160" y1="50" y2="50" />
	<text font-family="san serif" font-size="9" x="2" y="59">G</text>
	<line stroke="black" stroke-dasharray="3,1" stroke-width="0.5" x1="0" x2="160" y1="60" y2="60" />
	<text font-family="san serif" font-size="9" x="2" y="69">A</text>
	<line stroke="black" stroke-dasharray="3,1" stroke-width="0.5" x1="0" x2="160" y1="70" y2="70" />
	<text font-family="san serif" font-size="9" x="2" y="79">A</text>
	<line stroke="black" stroke-dasharray="3,1" stroke-width="0.5" x1="0" x2="160" y1="80" y2="80" />
	<text font-family="san serif" font-size="9" x="2" y="89">T</text>
	<line stroke="black" stroke-dasharray="3,1" stroke-width="0.5" x1="0" x2="160" y1="90" y2="90" />
	<text font-family="san serif" font-size="9" x="2" y="99">A</text>
	<line stroke="black" stroke-dasharray="3,1" stroke-width="0.5" x1="0" x2="160" y1="100" y2="100" />
	<text font-family="san serif" font-size="9" x="2" y="109">G</text>
	<line stroke="black" stroke-dasharray="3,1" stroke-width="0.5" x1="0" x2="160" y1="110" y2="110" />
	<text font-family="san serif" font-size="9" x="2" y="119">A</text>
	<line stroke="black" stroke-dasharray="3,1" stroke-width="0.5" x1="0" x2="160" y1="120" y2="120" />
	<text font-family="san serif" font-size="9" x="2" y="129">C</text>
	<line stroke="black" stroke-dasharray="3,1" stroke-width="0.5" x1="0" x2="160" y1="130" y2="130" />
	<text font-family="san serif" font-size="9" x="2" y="139">C</text>
	<line stroke="black" stroke-dasharray="3,1" stroke-width="0.5" x1="0" x2="160" y1="140" y2="140" />
	<text font-family="san serif" font-size="9" x="2" y="149">A</text>
	<line stroke="black" stroke-dasharray="3,1" stroke-width="0.5" x1="0" x2="160" y1="150" y2="150" />
	<text font-family="san serif" font-size="9" x="2" y="159">T</text>
	<line stroke="black" stroke-dasharray="3,1" stroke-width="0.5" x1="0" x2="160" y1="160" y2="160" />
	<text font-family="san serif" font-size="9" x="2" y="169">G</text>
	<rect fill="blue" height="10" opacity="0.5" width="10" x="40" y="10" />
	<rect fill="blue" height="10" opacity="0.5" width="10" x="50" y="10" />
	<rect fill="blue" height="10" opacity="0.5" width="10" x="100" y="10" />
	<rect fill="blue" height="10" opacity="0.5" width="10" x="110" y="10" />
	<rect fill="blue" height="10" opacity="0.5" width="10" x="150" y="10" />
	<rect fill="blue" height="10" opacity="0.5" width="10" x="10" y="20" />
	<rect fill="blue" height="10" opacity="0.5" width="10" x="30" y="20" />
	<rect fill="blue" height="10" opacity="0.5" width="10" x="60" y="20" />
	<rect fill="blue" height="10" opacity="0.5" width="10" x="80" y="20" />
	<rect fill="blue" height="10" opacity="0.5" width="10" x="90" y="20" />
	<rect fill="blue" height="10" opacity="0.5" width="10" x="120" y="20" />
	<rect fill="blue" height="10" opacity="0.5" width="10" x="130" y="20" />
	<rect fill="blue" height="10" opacity="0.5" width="10" x="140" y="20" />
	<rect fill="blue" height="10" opacity="0.5" width="10" x="10" y="30" />
	<rect fill="blue" height="10" opacity="0.5" width="10" x="30" y="30" />
	<rect fill="blue" height="10" opacity="0.5" width="10" x="60" y="30" />
	<rect fill="blue" height="10" opacity="0.5" width="10" x="80" y="30" />
	<rect fill="blue" height="10" opacity="0.5" width="10" x="90" y="30" />
	<rect fill="blue" height="10" opacity="0.5" width="10" x="120" y="30" />
	<rect fill="blue" height="10" opacity="0.5" width="10" x="130" y="30" />
	<rect fill="blue" height="10" opacity="0.5" width="10" x="140" y="30" />
	<rect fill="blue" height="10" opacity="0.5" width="10" x="40" y="40" />
	<rect fill="blue" height="10" opacity="0.5" width="10" x="50" y="40" />
	<rect fill="blue" height="10" opacity="0.5" width="10" x="100" y="40" />
	<rect fill="blue" height="10" opacity="0.5" width="10" x="110" y="40" />
	<rect fill="blue" height="10" opacity="0.5" width="10" x="150" y="40" />
	<rect fill="blue" height="10" opacity="0.5" width="10" x="70" y="50" />
	<rect fill="blue" height="10" opacity="0.5" width="10" x="10" y="60" />
	<rect fill="blue" height="10" opacity="0.5" width="10" x="30" y="60" />
	<rect fill="blue" height="10" opacity="0.5" width="10" x="60" y="60" />
	<rect fill="blue" height="10" opacity="0.5" width="10" x="80" y="60" />
	<rect fill="blue" height="10" opacity="0.5" width="10" x="90" y="60" />
	<rect fill="blue" height="10" opacity="0.5" width="10" x="120" y="60" />
	<rect fill="blue" height="10" opacity="0.5" width="10" x="130" y="60" />
	<rect fill="blue" height="10" opacity="0.5" width="10" x="140" y="60" />
	<rect fill="blue" height="10" opacity="0.5" width="10" x="10" y="70" />
	<rect fill="blue" height="10" opacity="0.5" width="10" x="30" y="70" />
	<rect fill="blue" height="10" opacity="0.5" width="10" x="60" y="70" />
	<rect fill="blue" height="10" opacity="0.5" width="10" x="80" y="70" />
	<rect fill="blue" height="10" opacity="0.5" width="10" x="90" y="70" />
	<rect fill="blue" height="10" opacity="0.5" width="10" x="120" y="70" />
	<rect fill="blue" height="10" opacity="0.5" width="10" x="130" y="70" />
	<rect fill="blue" height="10" opacity="0.5" width="10" x="140" y="70" />
	<rect fill="blue" height="10" opacity="0.5" width="10" x="40" y="80" />
	<rect fill="blue" height="10" opacity="0.5" width="10" x="50" y="80" />
	<rect fill="blue" height="10" opacity="0.5" width="10" x="100" y="80" />
	<rect fill="blue" height="10" opacity="0.5" width="10" x="110" y="80" />
	<rect fill="blue" height="10" opacity="0.5" width="10" x="150" y="80" />
	<rect fill="blue" height="10" opacity="0.5" width="10" x="10" y="90" />
	<rect fill="blue" height="10" opacity="0.5" width="10" x="30" y="90" />
	<rect fill="blue" height="10" opacity="0.5" width="10" x="60" y="90" />
	<rect fill="blue" height="10" opacity="0.5" width="10" x="80" y="90" />
	<rect fill="blue" height="10" opacity="0.5" width="10" x="90" y="90" />
	<rect fill="blue" height="10" opacity="0.5" width="10" x="120" y="90" />
	<rect fill="blue" height="10" opacity="0.5" width="10" x="130" y="90" />
	<rect fill="blue" height="10" opacity="0.5" width="10" x="140" y="90" />
	<rect fill="blue" height="10" opacity="0.5" width="10" x="70" y="100" />
	<rect fill="blue" height="10" opacity="0.5" width="10" x="10" y="110" />
	<rect fill="blue" height="10" opacity="0.5" width="10" x="30" y="110" />
	<rect fill="blue" height="10" opacity="0.5" width="10" x="60" y="110" />
	<rect fill="blue" height="10" opacity="0.5" width="10" x="80" y="110" />
	<rect fill="blue" height="10" opacity="0.5" width="10" x="90" y="110" />
	<rect fill="blue" height="10" opacity="0.5" width="10" x="120" y="110" />
	<rect fill="blue" height="10" opacity="0.5" width="10" x="130" y="110" />
	<rect fill="blue" height="10" opacity="0.5" width="10" x="140" y="110" />
	<rect fill="blue" height="10" opacity="0.5" width="10" x="20" y="120" />
	<rect fill="blue" height="10" opacity="0.5" width="10" x="20" y="130" />
	<rect fill="blue" height="10" opacity="0.5" width="10" x="10" y="140" />
	<rect fill="blue" height="10" opacity="0.5" width="10" x="30" y="140" />
	<rect fill="blue" height="10" opacity="0.5" width="10" x="60" y="140" />
	<rect fill="blue" height="10" opacity="0.5" width="10" x="80" y="140" />
	<rect fill="blue" height="10" opacity="0.5" width="10" x="90" y="140" />
	<rect fill="blue" height="10" opacity="0.5" width="10" x="120" y="140" />
	<rect fill="blue" height="10" opacity="0.5" width="10" x="130" y="140" />
	<rect fill="blue" height="10" opacity="0.5" width="10" x="140" y="140" />
	<rect fill="blue" height="10" opacity="0.5" width="10" x="40" y="150" />
	<rect fill="blue" height="10" opacity="0.5" width="10" x="50" y="150" />
	<rect fill="blue" height="10" opacity="0.5" width="10" x="100" y="150" />
	<rect fill="blue" height="10" opacity="0.5" width="10" x="110" y="150" />
	<rect fill="blue" height="10" opacity="0.5" width="10" x="150" y="150" />
	<rect fill="blue" height="10" opacity="0.5" width="10" x="70" y="160" />
	<rect fill="red" height="10" opacity="0.333333333333333" width="10" x="110" y="10">
		<animate attributeName="fill-opacity" dur="7s" repeatDur="indefinite" values="0;0.5;1.0" />
	</rect>
	<rect fill="red" height="10" opacity="0.333333333333333" width="10" x="120" y="20">
		<animate attributeName="fill-opacity" dur="7s" repeatDur="indefinite" values="0;0.5;1.0" />
	</rect>
	<rect fill="red" height="10" opacity="0.333333333333333" width="10" x="130" y="30">
		<animate attributeName="fill-opacity" dur="7s" repeatDur="indefinite" values="0;0.5;1.0" />
	</rect>
	<rect fill="red" height="10" opacity="0.333333333333333" width="10" x="80" y="20">
		<animate attributeName="fill-opacity" dur="7s" repeatDur="indefinite" values="0;0.5;1.0" />
	</rect>
	<rect fill="red" height="10" opacity="0.333333333333333" width="10" x="90" y="30">
		<animate attributeName="fill-opacity" dur="7s" repeatDur="indefinite" values="0;0.5;1.0" />
	</rect>
	<rect fill="red" height="10" opacity="0.333333333333333" width="10" x="100" y="40">
		<animate attributeName="fill-opacity" dur="7s" repeatDur="indefinite" values="0;0.5;1.0" />
	</rect>
	<rect fill="red" height="10" opacity="0.333333333333333" width="10" x="130" y="20">
		<animate attributeName="fill-opacity" dur="7s" repeatDur="indefinite" values="0;0.5;1.0" />
	</rect>
	<rect fill="red" height="10" opacity="0.333333333333333" width="10" x="140" y="30">
		<animate attributeName="fill-opacity" dur="7s" repeatDur="indefinite" values="0;0.5;1.0" />
	</rect>
	<rect fill="red" height="10" opacity="0.333333333333333" width="10" x="150" y="40">
		<animate attributeName="fill-opacity" dur="7s" repeatDur="indefinite" values="0;0.5;1.0" />
	</rect>
	<rect fill="red" height="10" opacity="0.333333333333333" width="10" x="70" y="50">
		<animate attributeName="fill-opacity" dur="7s" repeatDur="indefinite" values="0;0.5;1.0" />
	</rect>
	<rect fill="red" height="10" opacity="0.333333333333333" width="10" x="80" y="60">
		<animate attributeName="fill-opacity" dur="7s" repeatDur="indefinite" values="0;0.5;1.0" />
	</rect>
	<rect fill="red" height="10" opacity="0.333333333333333" width="10" x="90" y="70">
		<animate attributeName="fill-opacity" dur="7s" repeatDur="indefinite" values="0;0.5;1.0" />
	</rect>
	<rect fill="red" height="10" opacity="0.333333333333333" width="10" x="80" y="60">
		<animate attributeName="fill-opacity" dur="7s" repeatDur="indefinite" values="0;0.5;1.0" />
	</rect>
	<rect fill="red" height="10" opacity="0.333333333333333" width="10" x="90" y="70">
		<animate attributeName="fill-opacity" dur="7s" repeatDur="indefinite" values="0;0.5;1.0" />
	</rect>
	<rect fill="red" height="10" opacity="0.333333333333333" width="10" x="100" y="80">
		<animate attributeName="fill-opacity" dur="7s" repeatDur="indefinite" values="0;0.5;1.0" />
	</rect>
	<rect fill="red" height="10" opacity="0.333333333333333" width="10" x="130" y="60">
		<animate attributeName="fill-opacity" dur="7s" repeatDur="indefinite" values="0;0.5;1.0" />
	</rect>
	<rect fill="red" height="10" opacity="0.333333333333333" width="10" x="140" y="70">
		<animate attributeName="fill-opacity" dur="7s" repeatDur="indefinite" values="0;0.5;1.0" />
	</rect>
	<rect fill="red" height="10" opacity="0.333333333333333" width="10" x="150" y="80">
		<animate attributeName="fill-opacity" dur="7s" repeatDur="indefinite" values="0;0.5;1.0" />
	</rect>
	<rect fill="red" height="10" opacity="0.333333333333333" width="10" x="50" y="80">
		<animate attributeName="fill-opacity" dur="7s" repeatDur="indefinite" values="0;0.5;1.0" />
	</rect>
	<rect fill="red" height="10" opacity="0.333333333333333" width="10" x="60" y="90">
		<animate attributeName="fill-opacity" dur="7s" repeatDur="indefinite" values="0;0.5;1.0" />
	</rect>
	<rect fill="red" height="10" opacity="0.333333333333333" width="10" x="70" y="100">
		<animate attributeName="fill-opacity" dur="7s" repeatDur="indefinite" values="0;0.5;1.0" />
	</rect>
	<rect fill="red" height="10" opacity="0.333333333333333" width="10" x="60" y="90">
		<animate attributeName="fill-opacity" dur="7s" repeatDur="indefinite" values="0;0.5;1.0" />
	</rect>
	<rect fill="red" height="10" opacity="0.333333333333333" width="10" x="70" y="100">
		<animate attributeName="fill-opacity" dur="7s" repeatDur="indefinite" values="0;0.5;1.0" />
	</rect>
	<rect fill="red" height="10" opacity="0.333333333333333" width="10" x="80" y="110">
		<animate attributeName="fill-opacity" dur="7s" repeatDur="indefinite" values="0;0.5;1.0" />
	</rect>
	<rect fill="red" height="10" opacity="0.333333333333333" width="10" x="20" y="130">
		<animate attributeName="fill-opacity" dur="7s" repeatDur="indefinite" values="0;0.5;1.0" />
	</rect>
	<rect fill="red" height="10" opacity="0.333333333333333" width="10" x="30" y="140">
		<animate attributeName="fill-opacity" dur="7s" repeatDur="indefinite" values="0;0.5;1.0" />
	</rect>
	<rect fill="red" height="10" opacity="0.333333333333333" width="10" x="40" y="150">
		<animate attributeName="fill-opacity" dur="7s" repeatDur="indefinite" values="0;0.5;1.0" />
	</rect>
	<!-- 
	Generated using the Perl SVG Module V2.59
	by Ronan Oger
	Info: http://www.roitsystems.com/
 -->
</svg>