<?xml version="1.0" encoding="UTF-8" standalone="yes"?>
<!DOCTYPE svg PUBLIC "-//W3C//DTD SVG 1.0//EN" "http://www.w3.org/TR/2001/REC-SVG-20010904/DTD/svg10.dtd">
<svg height="240" width="180" xmlns="http://www.w3.org/2000/svg" xmlns:svg="http://www.w3.org/2000/svg" xmlns:xlink="http://www.w3.org/1999/xlink">
	<rect fill="rgb(200, 200, 200)" height="240" width="180" x="0" y="0" />
	<text text-anchor="middle" x="10" y="60">A</text>
	<text text-anchor="middle" x="10" y="80">T</text>
	<text text-anchor="middle" x="10" y="100">G</text>
	<text text-anchor="middle" x="10" y="120">G</text>
	<text text-anchor="middle" x="10" y="140">A</text>
	<text text-anchor="middle" x="10" y="160">A</text>
	<text text-anchor="middle" x="10" y="180">T</text>
	<text text-anchor="middle" x="10" y="200">G</text>
	<text text-anchor="middle" x="10" y="220">T</text>
	<text text-anchor="middle" x="50" y="20">A</text>
	<text text-anchor="middle" x="70" y="20">T</text>
	<text text-anchor="middle" x="90" y="20">G</text>
	<text text-anchor="middle" x="110" y="20">A</text>
	<text text-anchor="middle" x="130" y="20">A</text>
	<text text-anchor="middle" x="150" y="20">A</text>
	<line stroke="rgb(0,0,0)" stroke-width="0.5" x1="20" x2="20" y1="240" y2="0" />
	<line stroke="rgb(0,0,0)" stroke-width="0.5" x1="0" x2="180" y1="21" y2="21" />
	<line stroke="rgb(0,0,0)" stroke-dasharray="1" stroke-opacity="0.5" stroke-width="0.5" x1="0" x2="180" y1="41" y2="41" />
	<line stroke="rgb(0,0,0)" stroke-dasharray="1" stroke-opacity="0.5" stroke-width="0.5" x1="0" x2="180" y1="61" y2="61" />
	<line stroke="rgb(0,0,0)" stroke-dasharray="1" stroke-opacity="0.5" stroke-width="0.5" x1="0" x2="180" y1="81" y2="81" />
	<line stroke="rgb(0,0,0)" stroke-dasharray="1" stroke-opacity="0.5" stroke-width="0.5" x1="0" x2="180" y1="101" y2="101" />
	<line stroke="rgb(0,0,0)" stroke-dasharray="1" stroke-opacity="0.5" stroke-width="0.5" x1="0" x2="180" y1="121" y2="121" />
	<line stroke="rgb(0,0,0)" stroke-dasharray="1" stroke-opacity="0.5" stroke-width="0.5" x1="0" x2="180" y1="141" y2="141" />
	<line stroke="rgb(0,0,0)" stroke-dasharray="1" stroke-opacity="0.5" stroke-width="0.5" x1="0" x2="180" y1="161" y2="161" />
	<line stroke="rgb(0,0,0)" stroke-dasharray="1" stroke-opacity="0.5" stroke-width="0.5" x1="0" x2="180" y1="181" y2="181" />
	<line stroke="rgb(0,0,0)" stroke-dasharray="1" stroke-opacity="0.5" stroke-width="0.5" x1="0" x2="180" y1="201" y2="201" />
	<line stroke="rgb(0,0,0)" stroke-dasharray="1" stroke-opacity="0.5" stroke-width="0.5" x1="0" x2="180" y1="221" y2="221" />
	<line stroke="rgb(0,0,0)" stroke-dasharray="1" stroke-opacity="0.5" stroke-width="0.5" x1="20" x2="20" y1="0" y2="240" />
	<line stroke="rgb(0,0,0)" stroke-dasharray="1" stroke-opacity="0.5" stroke-width="0.5" x1="40" x2="40" y1="0" y2="240" />
	<line stroke="rgb(0,0,0)" stroke-dasharray="1" stroke-opacity="0.5" stroke-width="0.5" x1="60" x2="60" y1="0" y2="240" />
	<line stroke="rgb(0,0,0)" stroke-dasharray="1" stroke-opacity="0.5" stroke-width="0.5" x1="80" x2="80" y1="0" y2="240" />
	<line stroke="rgb(0,0,0)" stroke-dasharray="1" stroke-opacity="0.5" stroke-width="0.5" x1="100" x2="100" y1="0" y2="240" />
	<line stroke="rgb(0,0,0)" stroke-dasharray="1" stroke-opacity="0.5" stroke-width="0.5" x1="120" x2="120" y1="0" y2="240" />
	<line stroke="rgb(0,0,0)" stroke-dasharray="1" stroke-opacity="0.5" stroke-width="0.5" x1="140" x2="140" y1="0" y2="240" />
	<line stroke="rgb(0,0,0)" stroke-dasharray="1" stroke-opacity="0.5" stroke-width="0.5" x1="160" x2="160" y1="0" y2="240" />
	<line stroke="rgb(0,0,0)" stroke-dasharray="1" stroke-opacity="0.5" stroke-width="0.5" x1="180" x2="180" y1="0" y2="240" />
	<line stroke="rgb(0,0,0)" stroke-dasharray="1" stroke-opacity="0.5" stroke-width="0.5" x1="200" x2="200" y1="0" y2="240" />
	<text text-anchor="middle" x="30" y="40">0</text>
	<text text-anchor="middle" x="50" y="40">0</text>
	<text text-anchor="middle" x="70" y="40">0</text>
	<text text-anchor="middle" x="90" y="40">0</text>
	<text text-anchor="middle" x="110" y="40">0</text>
	<text text-anchor="middle" x="130" y="40">0</text>
	<text text-anchor="middle" x="150" y="40">0</text>
	<text text-anchor="middle" x="30" y="60">0</text>
	<text text-anchor="middle" x="50" y="60">2</text>
	<text text-anchor="middle" x="70" y="60">0</text>
	<text text-anchor="middle" x="90" y="60">0</text>
	<text text-anchor="middle" x="110" y="60">2</text>
	<text text-anchor="middle" x="130" y="60">2</text>
	<text text-anchor="middle" x="150" y="60">2</text>
	<text text-anchor="middle" x="30" y="80">0</text>
	<text text-anchor="middle" x="50" y="80">0</text>
	<text text-anchor="middle" x="70" y="80">4</text>
	<text text-anchor="middle" x="90" y="80">0</text>
	<text text-anchor="middle" x="110" y="80">0</text>
	<text text-anchor="middle" x="130" y="80">0</text>
	<text text-anchor="middle" x="150" y="80">0</text>
	<text text-anchor="middle" x="30" y="100">0</text>
	<text text-anchor="middle" x="50" y="100">0</text>
	<text text-anchor="middle" x="70" y="100">0</text>
	<text text-anchor="middle" x="90" y="100">6</text>
	<text text-anchor="middle" x="110" y="100">2</text>
	<text text-anchor="middle" x="130" y="100">1</text>
	<text text-anchor="middle" x="150" y="100">0</text>
	<text text-anchor="middle" x="30" y="120">0</text>
	<text text-anchor="middle" x="50" y="120">0</text>
	<text text-anchor="middle" x="70" y="120">0</text>
	<text text-anchor="middle" x="90" y="120">2</text>
	<text text-anchor="middle" x="110" y="120">3</text>
	<text text-anchor="middle" x="130" y="120">0</text>
	<text text-anchor="middle" x="150" y="120">0</text>
	<text text-anchor="middle" x="30" y="140">0</text>
	<text text-anchor="middle" x="50" y="140">2</text>
	<text text-anchor="middle" x="70" y="140">0</text>
	<text text-anchor="middle" x="90" y="140">1</text>
	<text text-anchor="middle" x="110" y="140">4</text>
	<text text-anchor="middle" x="130" y="140">5</text>
	<text text-anchor="middle" x="150" y="140">2</text>
	<text text-anchor="middle" x="30" y="160">0</text>
	<text text-anchor="middle" x="50" y="160">2</text>
	<text text-anchor="middle" x="70" y="160">0</text>
	<text text-anchor="middle" x="90" y="160">0</text>
	<text text-anchor="middle" x="110" y="160">3</text>
	<text text-anchor="middle" x="130" y="160">6</text>
	<text text-anchor="middle" x="150" y="160">7</text>
	<text text-anchor="middle" x="30" y="180">0</text>
	<text text-anchor="middle" x="50" y="180">0</text>
	<text text-anchor="middle" x="70" y="180">4</text>
	<text text-anchor="middle" x="90" y="180">0</text>
	<text text-anchor="middle" x="110" y="180">0</text>
	<text text-anchor="middle" x="130" y="180">2</text>
	<text text-anchor="middle" x="150" y="180">3</text>
	<text text-anchor="middle" x="30" y="200">0</text>
	<text text-anchor="middle" x="50" y="200">0</text>
	<text text-anchor="middle" x="70" y="200">0</text>
	<text text-anchor="middle" x="90" y="200">6</text>
	<text text-anchor="middle" x="110" y="200">2</text>
	<text text-anchor="middle" x="130" y="200">1</text>
	<text text-anchor="middle" x="150" y="200">2</text>
	<text text-anchor="middle" x="30" y="220">0</text>
	<text text-anchor="middle" x="50" y="220">0</text>
	<text text-anchor="middle" x="70" y="220">2</text>
	<text text-anchor="middle" x="90" y="220">2</text>
	<text text-anchor="middle" x="110" y="220">3</text>
	<text text-anchor="middle" x="130" y="220">0</text>
	<text text-anchor="middle" x="150" y="220">1</text>
	<!-- 
	Generated using the Perl SVG Module V2.64
	by Ronan Oger
	Info: http://www.roitsystems.com/
 -->
</svg>